<svg width="16" height="16" viewBox="0 0 16 16" fill="none" xmlns="http://www.w3.org/2000/svg">
<path d="M0.625901 7.29289C0.235377 7.68342 0.235377 8.31658 0.625901 8.70711L6.98986 15.0711C7.38039 15.4616 8.01355 15.4616 8.40408 15.0711C8.7946 14.6805 8.7946 14.0474 8.40408 13.6569L2.74722 8L8.40408 2.34315C8.7946 1.95262 8.7946 1.31946 8.40408 0.928932C8.01355 0.538408 7.38039 0.538408 6.98986 0.928932L0.625901 7.29289ZM14.6663 9C15.2186 9 15.6663 8.55228 15.6663 8C15.6663 7.44772 15.2186 7 14.6663 7V9ZM1.33301 9H14.6663V7H1.33301V9Z" fill="#0A0C32"/>
</svg>
