<svg width="20" height="20" viewBox="0 0 20 20" fill="none" xmlns="http://www.w3.org/2000/svg">
<path d="M20.0001 10.2224C20.0001 9.40034 19.9321 8.79987 19.7847 8.17773H10.2041V11.8889H15.8275C15.7144 12.8113 15.1017 14.2001 13.7411 15.1337L13.7223 15.2581L16.7514 17.558L16.9611 17.5789C18.8886 15.8337 20.0001 13.2664 20.0001 10.2224Z" fill="#3A7CEC"/>
<path d="M10.2042 20C12.959 20 15.2722 19.1114 16.9612 17.5781L13.7412 15.1337C12.8795 15.7229 11.7229 16.1339 10.2042 16.1339C7.50597 16.1339 5.21567 14.3895 4.39899 11.978L4.2794 11.9877L1.12982 14.3767L1.08887 14.4891C2.76646 17.7555 6.21337 20 10.2042 20Z" fill="#2CA24C"/>
<path d="M4.39875 11.9781C4.18332 11.356 4.05881 10.6889 4.05881 10.0001C4.05881 9.31133 4.18332 8.64423 4.38729 8.02209L4.38155 7.88964L1.19266 5.46289L1.08863 5.51186C0.396461 6.86692 0 8.38896 0 10.0001C0 11.6112 0.396461 13.1333 1.08863 14.4891L4.39875 11.9781Z" fill="#F1B500"/>
<path d="M10.2042 3.8669C12.1202 3.8669 13.4128 4.67769 14.15 5.35602L17.0301 2.60014C15.2607 0.989002 12.959 0 10.2042 0C6.21338 0 2.76646 2.24452 1.08887 5.51096L4.38834 8.022C5.21567 5.6113 7.50597 3.8669 10.2042 3.8669Z" fill="#E33E2B"/>
</svg>
