<?xml version="1.0" encoding="utf-8"?>
<!-- Generator: Adobe Illustrator 16.0.0, SVG Export Plug-In . SVG Version: 6.00 Build 0)  -->
<!DOCTYPE svg PUBLIC "-//W3C//DTD SVG 1.1//EN" "http://www.w3.org/Graphics/SVG/1.1/DTD/svg11.dtd">
<svg version="1.1" id="Layer_1" xmlns="http://www.w3.org/2000/svg" xmlns:xlink="http://www.w3.org/1999/xlink" x="0px" y="0px"
	 width="17px" height="16px" viewBox="0 0 17 16" enable-background="new 0 0 17 16" xml:space="preserve">
<path fill="#396AFF" d="M15.3,4.85H1c-0.414,0-0.75-0.336-0.75-0.75V1c0-0.414,0.336-0.75,0.75-0.75h14.3
	c0.414,0,0.75,0.336,0.75,0.75v3.1C16.05,4.514,15.714,4.85,15.3,4.85z M1.75,3.35h12.8v-1.6H1.75V3.35z"/>
<path fill="#396AFF" d="M13.701,14.95H2.5c-0.91,0-1.65-0.74-1.65-1.65V4.9c0-0.91,0.74-1.65,1.65-1.65h11.3
	c0.91,0,1.65,0.74,1.65,1.65v8.4c0,0.05-0.005,0.1-0.015,0.147C15.262,14.318,14.531,14.95,13.701,14.95z M2.5,4.75
	c-0.085,0-0.15,0.064-0.15,0.15v8.4c0,0.086,0.064,0.15,0.15,0.15h11.201c0.102,0,0.204-0.103,0.25-0.242V4.9
	c0-0.085-0.064-0.15-0.15-0.15H2.5z"/>
<path fill="#396AFF" d="M8.1,12.55c-0.414,0-0.75-0.336-0.75-0.75V6.5c0-0.414,0.336-0.75,0.75-0.75S8.85,6.086,8.85,6.5v5.3
	C8.85,12.214,8.514,12.55,8.1,12.55z"/>
<path fill="#396AFF" d="M8.1,12.55c-0.153,0-0.306-0.047-0.436-0.14l-2.8-2c-0.337-0.241-0.415-0.709-0.174-1.046
	c0.24-0.337,0.709-0.416,1.046-0.175L8.1,10.878l2.365-1.688c0.338-0.242,0.806-0.162,1.046,0.175s0.162,0.806-0.175,1.046l-2.8,2
	C8.405,12.503,8.252,12.55,8.1,12.55z"/>
</svg>
