<svg width="22" height="24" viewBox="0 0 22 24" fill="none" xmlns="http://www.w3.org/2000/svg">
<path d="M12.2222 3.48823C15.6933 4.06246 18.3333 7.01737 18.3333 10.5704V15.2473C18.3333 15.5162 18.4417 15.7738 18.6338 15.9619L20.2482 17.5421C20.8886 18.1689 20.4448 19.2567 19.5487 19.2567H2.45126C1.55518 19.2567 1.1114 18.1689 1.75177 17.5421L3.36616 15.9619C3.55835 15.7738 3.66667 15.5162 3.66667 15.2473V10.5704C3.66667 7.01737 6.30667 4.06246 9.77778 3.48823C10.4278 3.38069 11.4282 3.35692 12.2222 3.48823Z" stroke="#396AFF" stroke-width="2"/>
<path d="M8.57129 21.8057C9.09434 22.4576 9.86244 22.8795 10.7056 22.978C11.5488 23.0765 12.3974 22.8435 13.0638 22.3306C13.2688 22.1789 13.4532 22.0025 13.6127 21.8057" stroke="#396AFF" stroke-width="2" stroke-linecap="round" stroke-linejoin="round"/>
<path d="M10.666 1L10.666 3.08055" stroke="#396AFF" stroke-width="2" stroke-linecap="round" stroke-linejoin="round"/>
</svg>
