<svg width="24" height="24" viewBox="0 0 24 24" fill="none" xmlns="http://www.w3.org/2000/svg">
<path fill-rule="evenodd" clip-rule="evenodd" d="M9.09028 16.2979C4.72673 16.2979 1 16.9647 1 19.6369C1 22.3079 4.70289 23.0001 9.09028 23.0001C13.4538 23.0001 17.1806 22.332 17.1806 19.661C17.1806 16.99 13.4777 16.2979 9.09028 16.2979Z" stroke="#396AFF" stroke-width="1.7" stroke-linecap="round" stroke-linejoin="round"/>
<path fill-rule="evenodd" clip-rule="evenodd" d="M9.09068 12.4866C11.9694 12.4866 14.2761 10.1531 14.2761 7.24331C14.2761 4.3324 11.9694 2 9.09068 2C6.21305 2 3.90527 4.3324 3.90527 7.24331C3.90527 10.1531 6.21305 12.4866 9.09068 12.4866Z" stroke="#396AFF" stroke-width="1.7" stroke-linecap="round" stroke-linejoin="round"/>
<path d="M19.677 8.79395V13.3968" stroke="#396AFF" stroke-width="1.7" stroke-linecap="round" stroke-linejoin="round"/>
<path d="M22.0002 11.0954H17.3574" stroke="#396AFF" stroke-width="1.7" stroke-linecap="round" stroke-linejoin="round"/>
</svg>
