<svg width="16" height="14" viewBox="0 0 16 14" fill="none" xmlns="http://www.w3.org/2000/svg">
<path d="M2 8.5C1.39278 8.0439 1 7.31791 1 6.5V3.5C1 3.22386 1.22386 3 1.5 3H14.5C14.7761 3 15 3.22386 15 3.5V6.5C15 7.31791 14.6072 8.04408 14 8.50018M2 8.5C2.41783 8.81384 2.9372 9 3.5 9H12.5C13.0628 9 13.5822 8.81403 14 8.50018M2 8.5V12C2 12.5523 2.44772 13 3 13H13C13.5523 13 14 12.5523 14 12V8.50018" stroke="white" stroke-width="1.5" stroke-linecap="round" stroke-linejoin="round"/>
<path d="M10 1H6V3H10V1Z" stroke="white" stroke-width="1.5" stroke-linecap="round" stroke-linejoin="round"/>
<path d="M8 8V10" stroke="white" stroke-width="1.5" stroke-linecap="round" stroke-linejoin="round"/>
</svg>
