<svg width="24" height="24" viewBox="0 0 24 24" fill="none" xmlns="http://www.w3.org/2000/svg">
<path d="M2.625 13.4688C1.82802 12.8701 1.3125 11.9173 1.3125 10.8438V6.90625C1.3125 6.54381 1.60631 6.25 1.96875 6.25H19.0312C19.3937 6.25 19.6875 6.54381 19.6875 6.90625V10.8438C19.6875 11.9173 19.172 12.8704 18.375 13.469M2.625 13.4688C3.1734 13.8807 3.85507 14.125 4.59375 14.125H16.4062C17.1449 14.125 17.8266 13.8809 18.375 13.469M2.625 13.4688V18.0625C2.625 18.7874 3.21263 19.375 3.9375 19.375H17.0625C17.7874 19.375 18.375 18.7874 18.375 18.0625V13.469" stroke="#396AFF" stroke-width="1.5" stroke-linecap="round" stroke-linejoin="round"/>
<path d="M13.125 3.625H7.875V6.25H13.125V3.625Z" stroke="#396AFF" stroke-width="1.5" stroke-linecap="round" stroke-linejoin="round"/>
<path d="M10.5 12.8125V15.4375" stroke="#396AFF" stroke-width="1.5" stroke-linecap="round" stroke-linejoin="round"/>
</svg>
