<svg width="12" height="12" viewBox="0 0 12 12" fill="none" xmlns="http://www.w3.org/2000/svg">
<path opacity="0.5" fill-rule="evenodd" clip-rule="evenodd" d="M7.21209 6.00011L11.7489 1.46333C12.084 1.12819 12.084 0.586489 11.7489 0.251353C11.4137 -0.0837842 10.872 -0.0837842 10.5369 0.251353L6.00011 4.78813L1.46333 0.251353C1.12819 -0.0837842 0.58649 -0.0837842 0.251353 0.251353C-0.0837842 0.586489 -0.0837842 1.12819 0.251353 1.46333L4.78813 6.00011L0.251353 10.5369C-0.0837842 10.872 -0.0837842 11.4137 0.251353 11.7489C0.418493 11.916 0.637917 12 0.857342 12C1.07677 12 1.29619 11.916 1.46333 11.7489L6.00011 7.21209L10.5369 11.7489C10.704 11.916 10.9234 12 11.1429 12C11.3623 12 11.5817 11.916 11.7489 11.7489C12.084 11.4137 12.084 10.872 11.7489 10.5369L7.21209 6.00011Z" fill="#171717"/>
</svg>
