<svg width="24" height="24" viewBox="0 0 24 24" fill="none" xmlns="http://www.w3.org/2000/svg">
<path d="M17.9072 10.7439C19.5096 10.7439 20.8094 9.44499 20.8094 7.84266C20.8094 6.24032 19.5096 4.94141 17.9072 4.94141" stroke="#396AFF" stroke-width="1.5" stroke-linecap="round" stroke-linejoin="round"/>
<path d="M19.2412 13.8975C19.7197 13.9305 20.1955 13.9983 20.6639 14.1037C21.3147 14.2311 22.0975 14.4979 22.3762 15.0818C22.554 15.4558 22.554 15.8912 22.3762 16.2661C22.0985 16.85 21.3147 17.1159 20.6639 17.2497" stroke="#396AFF" stroke-width="1.5" stroke-linecap="round" stroke-linejoin="round"/>
<path d="M6.60236 10.7439C5.00003 10.7439 3.7002 9.44499 3.7002 7.84266C3.7002 6.24032 5.00003 4.94141 6.60236 4.94141" stroke="#396AFF" stroke-width="1.5" stroke-linecap="round" stroke-linejoin="round"/>
<path d="M5.26815 13.8975C4.78965 13.9305 4.3139 13.9983 3.84548 14.1037C3.19465 14.2311 2.41181 14.4979 2.13406 15.0818C1.95531 15.4558 1.95531 15.8912 2.13406 16.2661C2.4109 16.85 3.19465 17.1159 3.84548 17.2497" stroke="#396AFF" stroke-width="1.5" stroke-linecap="round" stroke-linejoin="round"/>
<path fill-rule="evenodd" clip-rule="evenodd" d="M12.2502 14.5225C15.497 14.5225 18.2708 15.0138 18.2708 16.98C18.2708 18.9454 15.5153 19.455 12.2502 19.455C9.00241 19.455 6.22949 18.9637 6.22949 16.9975C6.22949 15.0312 8.98499 14.5225 12.2502 14.5225Z" stroke="#396AFF" stroke-width="1.5" stroke-linecap="round" stroke-linejoin="round"/>
<path fill-rule="evenodd" clip-rule="evenodd" d="M12.2499 11.7174C10.1085 11.7174 8.3916 10.0005 8.3916 7.85825C8.3916 5.71692 10.1085 4 12.2499 4C14.3912 4 16.1081 5.71692 16.1081 7.85825C16.1081 10.0005 14.3912 11.7174 12.2499 11.7174Z" stroke="#396AFF" stroke-width="1.5" stroke-linecap="round" stroke-linejoin="round"/>
</svg>
