<svg width="23" height="18" viewBox="0 0 23 18" fill="none" xmlns="http://www.w3.org/2000/svg">
<path d="M16.9072 7.74439C18.5096 7.74439 19.8094 6.44548 19.8094 4.84314C19.8094 3.24081 18.5096 1.94189 16.9072 1.94189" stroke="#396AFF" stroke-width="1.5" stroke-linecap="round" stroke-linejoin="round"/>
<path d="M18.2412 10.8972C18.7197 10.9302 19.1955 10.9981 19.6639 11.1035C20.3147 11.2309 21.0975 11.4976 21.3762 12.0816C21.554 12.4556 21.554 12.891 21.3762 13.2659C21.0985 13.8498 20.3147 14.1156 19.6639 14.2495" stroke="#396AFF" stroke-width="1.5" stroke-linecap="round" stroke-linejoin="round"/>
<path d="M5.60236 7.74439C4.00003 7.74439 2.7002 6.44548 2.7002 4.84314C2.7002 3.24081 4.00003 1.94189 5.60236 1.94189" stroke="#396AFF" stroke-width="1.5" stroke-linecap="round" stroke-linejoin="round"/>
<path d="M4.26815 10.8972C3.78965 10.9302 3.3139 10.9981 2.84548 11.1035C2.19465 11.2309 1.41181 11.4976 1.13406 12.0816C0.955313 12.4556 0.955313 12.891 1.13406 13.2659C1.4109 13.8498 2.19465 14.1156 2.84548 14.2495" stroke="#396AFF" stroke-width="1.5" stroke-linecap="round" stroke-linejoin="round"/>
<path fill-rule="evenodd" clip-rule="evenodd" d="M11.2502 11.5221C14.497 11.5221 17.2708 12.0134 17.2708 13.9797C17.2708 15.945 14.5153 16.4547 11.2502 16.4547C8.00241 16.4547 5.22949 15.9633 5.22949 13.9971C5.22949 12.0308 7.98499 11.5221 11.2502 11.5221Z" stroke="#396AFF" stroke-width="1.5" stroke-linecap="round" stroke-linejoin="round"/>
<path fill-rule="evenodd" clip-rule="evenodd" d="M11.2499 8.71742C9.10852 8.71742 7.3916 7.0005 7.3916 4.85825C7.3916 2.71692 9.10852 1 11.2499 1C13.3912 1 15.1081 2.71692 15.1081 4.85825C15.1081 7.0005 13.3912 8.71742 11.2499 8.71742Z" stroke="#396AFF" stroke-width="1.5" stroke-linecap="round" stroke-linejoin="round"/>
</svg>
