<svg width="16" height="16" viewBox="0 0 16 16" fill="none" xmlns="http://www.w3.org/2000/svg">
<path d="M12.9394 6.08398C12.9394 6.08398 12.5231 11.1809 12.2816 13.328C12.1666 14.3534 11.525 14.9543 10.474 14.9732C8.47392 15.0088 6.47156 15.011 4.47227 14.9694C3.46112 14.949 2.83021 14.3405 2.71752 13.3332C2.47451 11.1673 2.06055 6.08398 2.06055 6.08398" stroke="#FF6E6E" stroke-width="1.5" stroke-linecap="round" stroke-linejoin="round"/>
<path d="M14 3.64011H1" stroke="#FF6E6E" stroke-width="1.5" stroke-linecap="round" stroke-linejoin="round"/>
<path d="M11.4952 3.64043C10.8934 3.64043 10.3752 3.22041 10.2571 2.63844L10.0708 1.71819C9.95582 1.29363 9.56639 1 9.12253 1H5.87751C5.43365 1 5.04422 1.29363 4.92923 1.71819L4.74294 2.63844C4.62489 3.22041 4.10666 3.64043 3.50488 3.64043" stroke="#FF6E6E" stroke-width="1.5" stroke-linecap="round" stroke-linejoin="round"/>
</svg>
