<svg width="24" height="24" viewBox="0 0 24 24" fill="none" xmlns="http://www.w3.org/2000/svg">
<path d="M16.3457 11.2852C18.3144 11.2852 19.9102 9.68943 19.9102 7.72071C19.9102 5.75307 18.3144 4.15625 16.3457 4.15625" stroke="#396AFF" stroke-width="1.5" stroke-linecap="round" stroke-linejoin="round"/>
<path d="M17.9854 15.1592C18.5735 15.1992 19.1573 15.2835 19.7335 15.4111C20.5325 15.57 21.4947 15.8976 21.8363 16.6144C22.0547 17.0738 22.0547 17.609 21.8363 18.0685C21.4958 18.7853 20.5325 19.1128 19.7335 19.2772" stroke="#396AFF" stroke-width="1.5" stroke-linecap="round" stroke-linejoin="round"/>
<path fill-rule="evenodd" clip-rule="evenodd" d="M9.39596 15.9268C13.3853 15.9268 16.793 16.5311 16.793 18.9453C16.793 21.3605 13.4069 21.9854 9.39596 21.9854C5.40662 21.9854 2 21.3821 2 18.9669C2 16.5516 5.38499 15.9268 9.39596 15.9268Z" stroke="#396AFF" stroke-width="1.5" stroke-linecap="round" stroke-linejoin="round"/>
<path fill-rule="evenodd" clip-rule="evenodd" d="M9.39589 12.4804C6.76444 12.4804 4.65625 10.3711 4.65625 7.73964C4.65625 5.10927 6.76444 3 9.39589 3C12.0273 3 14.1366 5.10927 14.1366 7.73964C14.1366 10.3711 12.0273 12.4804 9.39589 12.4804Z" stroke="#396AFF" stroke-width="1.5" stroke-linecap="round" stroke-linejoin="round"/>
</svg>
