<svg width="16" height="17" viewBox="0 0 16 17" fill="none" xmlns="http://www.w3.org/2000/svg">
<path d="M2 12.0003V14.5H4.49966L11.872 7.12767L9.37233 4.62801L2 12.0003ZM13.8051 5.1946C13.8669 5.13293 13.9159 5.05968 13.9493 4.97904C13.9828 4.8984 14 4.81196 14 4.72466C14 4.63736 13.9828 4.55092 13.9493 4.47028C13.9159 4.38964 13.8669 4.31639 13.8051 4.25472L12.2453 2.69494C12.1836 2.63314 12.1104 2.58412 12.0297 2.55067C11.9491 2.51722 11.8626 2.5 11.7753 2.5C11.688 2.5 11.6016 2.51722 11.521 2.55067C11.4403 2.58412 11.3671 2.63314 11.3054 2.69494L10.0856 3.91477L12.5852 6.41443L13.8051 5.1946Z" fill="#396AFF"/>
</svg>
