<svg width="23" height="23" viewBox="0 0 23 23" fill="none" xmlns="http://www.w3.org/2000/svg">
<path fill-rule="evenodd" clip-rule="evenodd" d="M9.09028 15.2978C4.72673 15.2978 1 15.9647 1 18.6368C1 21.3079 4.70289 22 9.09028 22C13.4538 22 17.1806 21.332 17.1806 18.6609C17.1806 15.9899 13.4777 15.2978 9.09028 15.2978Z" stroke="#396AFF" stroke-width="1.7" stroke-linecap="round" stroke-linejoin="round"/>
<path fill-rule="evenodd" clip-rule="evenodd" d="M9.09068 11.4866C11.9694 11.4866 14.2761 9.15308 14.2761 6.24331C14.2761 3.3324 11.9694 1 9.09068 1C6.21305 1 3.90527 3.3324 3.90527 6.24331C3.90527 9.15308 6.21305 11.4866 9.09068 11.4866Z" stroke="#396AFF" stroke-width="1.7" stroke-linecap="round" stroke-linejoin="round"/>
<path d="M19.677 7.79431V12.3971" stroke="#396AFF" stroke-width="1.7" stroke-linecap="round" stroke-linejoin="round"/>
<path d="M22.0002 10.0955H17.3574" stroke="#396AFF" stroke-width="1.7" stroke-linecap="round" stroke-linejoin="round"/>
</svg>
