<svg width="14" height="16" viewBox="0 0 14 16" fill="none" xmlns="http://www.w3.org/2000/svg">
<path d="M6.45437 1C4.64689 1 3.18164 2.34315 3.18164 4C3.18164 5.65685 4.64689 7 6.45437 7C8.26185 7 9.7271 5.65685 9.7271 4C9.7271 2.34315 8.26185 1 6.45437 1Z" stroke="#200E32" stroke-width="1.5" stroke-linecap="round" stroke-linejoin="round"/>
<path d="M5.37254 9.97507C4.78925 10.0129 4.19966 10.0906 3.6181 10.2069C2.49563 10.4227 1.59764 10.8539 1.21543 11.5704C1.07127 11.8506 0.998792 12.1506 1.00002 12.4544C0.999583 12.7559 1.07147 13.0563 1.21046 13.3311C1.57746 14.0394 2.37085 14.4402 3.44218 14.6624L3.63409 14.6998C4.19986 14.8189 4.78963 14.8991 5.38335 14.9368C5.43392 14.9506 5.55443 14.9635 5.68597 14.9697L5.79416 14.9735C5.8498 14.9747 5.91293 14.975 6.00701 14.975C6.86038 15.0189 7.74507 15.0061 8.62564 14.9361C9.0949 14.9062 9.56732 14.8489 10.0358 14.765L10.3863 14.697C11.5432 14.484 12.4094 14.079 12.7889 13.3319C13.0703 12.7773 13.0703 12.1337 12.7891 11.5794C12.4105 10.8342 11.5553 10.4325 10.3775 10.2061C9.91545 10.114 9.4459 10.0459 8.973 10.0024L8.62728 9.97507C7.54445 9.88591 6.45537 9.88591 5.37254 9.97507Z" stroke="#200E32" stroke-width="1.5" stroke-linecap="round" stroke-linejoin="round"/>
</svg>
