<svg width="24" height="24" viewBox="0 0 24 24" fill="none" xmlns="http://www.w3.org/2000/svg">
<path d="M11.1816 1.5C8.47034 1.5 6.27246 3.51472 6.27246 6C6.27246 8.48528 8.47034 10.5 11.1816 10.5C13.8928 10.5 16.0906 8.48528 16.0906 6C16.0906 3.51472 13.8928 1.5 11.1816 1.5Z" stroke="#396AFF" stroke-width="1.5" stroke-linecap="round" stroke-linejoin="round"/>
<path d="M9.55881 14.9616C8.68387 15.0183 7.79949 15.1349 6.92715 15.3094C5.24345 15.6331 3.89646 16.2798 3.32314 17.3546C3.10691 17.7749 2.99819 18.2249 3.00002 18.6805C2.99937 19.1329 3.10721 19.5835 3.3157 19.9957C3.86619 21.0581 5.05628 21.6593 6.66327 21.9926L6.95114 22.0487C7.7998 22.2274 8.68445 22.3477 9.57502 22.4042C9.65087 22.4249 9.83165 22.4442 10.029 22.4536L10.1912 22.4593C10.2747 22.4611 10.3694 22.4616 10.5105 22.4616C11.7906 22.5273 13.1176 22.5082 14.4385 22.4032C15.1423 22.3583 15.851 22.2723 16.5537 22.1465L17.0795 22.0446C18.8148 21.7251 20.1141 21.1175 20.6834 19.9969C21.1055 19.165 21.1055 18.1996 20.6836 17.3681C20.1158 16.2504 18.8329 15.6478 17.0663 15.3081C16.3732 15.17 15.6689 15.0678 14.9595 15.0026L14.4409 14.9616C12.8167 14.8279 11.183 14.8279 9.55881 14.9616Z" stroke="#396AFF" stroke-width="1.5" stroke-linecap="round" stroke-linejoin="round"/>
</svg>
