<svg width="24" height="24" viewBox="0 0 24 24" fill="none" xmlns="http://www.w3.org/2000/svg">
<path fill-rule="evenodd" clip-rule="evenodd" d="M22.1944 7.34L21.4596 6.16C20.8379 5.16154 19.4601 4.8171 18.3796 5.39V5.39C17.8653 5.67037 17.2516 5.74991 16.6738 5.61109C16.096 5.47227 15.6016 5.12649 15.2997 4.65C15.1054 4.34713 15.001 4.00217 14.9971 3.65V3.65C15.0146 3.08538 14.7844 2.53823 14.3589 2.13321C13.9334 1.72818 13.3489 1.49977 12.7385 1.5H11.2579C10.6599 1.49999 10.0865 1.72051 9.66466 2.11275C9.2428 2.50499 9.00725 3.03662 9.01012 3.59V3.59C8.9924 4.73254 7.98635 5.65012 6.7515 5.65C6.37091 5.64634 5.99812 5.54975 5.67082 5.37V5.37C4.59033 4.7971 3.21258 5.14154 2.59088 6.14L1.80199 7.34C1.18104 8.33721 1.54821 9.6113 2.6233 10.19V10.19C3.32213 10.5633 3.75263 11.2533 3.75263 12C3.75263 12.7467 3.32213 13.4367 2.6233 13.81V13.81C1.54958 14.3848 1.18201 15.6558 1.80199 16.65V16.65L2.54766 17.84C2.83895 18.3264 3.32768 18.6853 3.90571 18.8373C4.48374 18.9893 5.10341 18.9219 5.62759 18.65V18.65C6.1429 18.3718 6.75696 18.2955 7.33329 18.4383C7.90962 18.581 8.40047 18.9308 8.69672 19.41C8.89098 19.7129 8.99536 20.0578 8.99931 20.41V20.41C8.99931 21.5643 10.0105 22.5 11.2579 22.5H12.7385C13.9817 22.5 14.9911 21.5704 14.9971 20.42V20.42C14.9942 19.8649 15.2312 19.3317 15.6554 18.9392C16.0796 18.5467 16.6558 18.3273 17.2557 18.33C17.6354 18.3394 18.0066 18.4356 18.3364 18.61V18.61C19.4141 19.1846 20.7909 18.8448 21.4163 17.85V17.85L22.1944 16.65C22.4956 16.1716 22.5783 15.6019 22.4241 15.067C22.2699 14.5321 21.8917 14.0761 21.3731 13.8V13.8C20.8545 13.5239 20.4762 13.0679 20.3221 12.533C20.1679 11.9981 20.2506 11.4284 20.5518 10.95C20.7476 10.6336 21.0311 10.3712 21.3731 10.19V10.19C22.4417 9.61161 22.8081 8.34497 22.1944 7.35V7.35V7.34Z" stroke="#396AFF" stroke-width="1.5" stroke-linecap="round" stroke-linejoin="round"/>
<ellipse cx="12.004" cy="12.0001" rx="3.11236" ry="2.88" stroke="#396AFF" stroke-width="1.5" stroke-linecap="round" stroke-linejoin="round"/>
</svg>
